<svg xmlns="http://www.w3.org/2000/svg" version="1.1" x="0" y="0" viewBox="0 0 257.5 138.8" enable-background="new 0 0 257.457 138.759" xml:space="preserve"><path display="none" fill="#E6E7E8" d="M231.2 86.7l0.2 0.2 0.1 0.1L231.2 86.7M170.5 57.7c-4.5-9.6-4.8-24.2-5.8-36.2 0.1-0.8 1.2-0.6 1.9-0.7C170.4 31.2 171.9 45.4 170.5 57.7zM144.2-19.3c-4.6-13.8-2.4-25.7 3.2-36.6 1.2 0.5 2.3 1 3.8 1.1C147.8-42.7 149.1-29.7 144.2-19.3zM77.7 53c-0.9 3.8-1.4 9.4-5.1 10.4 -1-12.9-0.3-30.1 5.1-40.5C80.4 32.7 80 43 77.7 53zM71.8 84.9c-0.1 0.7 0 1.3-0.2 1.9 -0.3 0.8-0.9 0.9-1.4 1.5 -0.2 0.3-0.4 0.8-0.5 1.4 -0.2-0.1-0.4-0.2-0.5-0.4l-0.5-1.1c-0.3-1-0.5-1.9-0.2-2.9l0-0.3c-0.1-0.8 0.1 0-0.2-0.8l-0.1-0.1c0.6 0 1.3 0 2.3-0.8 0.5 0.5 1 0.5 1.5 0.4C72 84.1 71.9 84.5 71.8 84.9zM57.2-3.1c0 0-0.3 1.5-0.7 3.9 -4.1-12.6-6.8-23.6-6.8-37.8 0-5.6 0.1-11.8-1.2-17.4 3-2.8 8.3-1.9 10.6-5.7C58.6-42.6 58.6-21.5 57.2-3.1zM54.2 70.3L52.8 73.6c0.3-0.1-0.6 1.1-0.4 1.1 0 1.2 0.1 0.8-0.2 1.9 -1.3-0.4-2.8-0.4-4.5 0.5 -1.3-3.4-5-3.2-4.8-6.6 0.2-4.6 0.3-8.5 1.6-12.9 2-6.9 7.3-26.3 9.6-32.7 1.7 10.8 4.2 39.8 4.2 39.8L54.2 70.3zM238.5-62c1.5-6.1-3.9-9-3.9-8.5 -6.4-2.3-8.4-2.2-14.9-5.5 -2.4-5.2 2.7-5 0.6-17.9 -3.3-5-6.1-10.2-12.8-9.1 -10.1 1.7-13.7 16.3-6.8 23 -0.6 1.4 1.5 0.6 1.3 1.8 0 0.9 1.9-0.2 2.3 0.3 -0.5 2.5-3.8 2.3-5.1 4 -3.4-9.5-13.8-13.2-23-11.9 -0.2-0.9-1.1-1-1.3-1.9 5.4-12.8-10.6-35.3-21.1-16.5 -3.9 12.5 3.3 12.4 5.1 18.4 -9-0.1-10.8 10.1-19.2 8.4 0-3.6 4-3.4 5.1-6 0.7-12.6-2.9-26.3-17.3-17.9 -6.4 5.1-6.7 12.5-4.5 20.7 -2.9-2.2-6.3 0.1-10.9-0.2 -1.7 0.5-1.7 2.7-2.6 3.9 -5.4-5.7-15.1-7-20.5-12.6 3.9-1.2 2.7-3.6 4.4-8.9 5-6.3 0.1-19.9-3.9-21 -4-1.1-6.5 0.3-6.5 0.3 -12.4 5.6-9 14.9-6.8 26.9 -6.5-2.8-12.7 1.7-16 5.7 -1.4 0.3-1.2 2.2-1.6 3.5 -0.9 0.2-0.7 1.6-1.4 2l-6.6 9.5c-0.2 0.3-0.4 0.5-0.5 0.8l-7.7-0.2c0.3-1.1 0.4-2.4-0.6-3.8 2.6-0.3 3.9-1.6 4.6-3.3l0.2-0.6 0.2-0.7c0.6-2.8 0.2-6.4 0.8-9.5l0.2-0.7 0-0.3c0.3-3.8-1-11.6-2.7-15.7l-0.2-1 -1-1c-0.3 0.1-0.8 0.2-1.3 0.3l-0.2-0.2 -0.5 0 -1.5 0.5c-0.6 0.1-1.3 0.2-1.9 0.3l-0.5-0.6 -1.5 0.6 -0.5 0.5v-1l-0.5 0 -0.1 0.1c-0.9 0.2-1.7 0.3-2.4 0.5l-0.5-0.5 -1 0.6 -0.6 0.6c-0.4 0.2-0.7 0.4-1.1 0.7l-1.3 0.4 -0.5 1.1c-0.2-0.3-0.3-0.7-0.5-1l-1.5 1.6v0.8c-0.5 0.9-0.8 1.8-1.1 2.7l-0.9 1.3 -0.5 3.1 0.8 1.2c0 0.9 0.1 1.9 0.2 2.9 0.1 0.7 0 3.5 0.5 5.6v1.1l0.9 1.9c-0.4 0.1-0.3 0.8-0.9 0.3 -0.1 0.4-0.8 0.2-1 0.7l-0.5 0.3v0.8c-3.4 6.9-9.6 11.3-12.8 19.4C6.7-50.9 9.3-38.5 9.7-28c0.2 5.3 1.4 8.3 3 13.3C14.3-9.2 11.2-3.3 12.9 2.1c0.7 2.1 5.4 3 6.7 4.7 2.2 3 0.5 4.3 0.5 8.5 0 1.9 2.1 9.8 2 11.5 -0.5 10.2-1.7 18.9-4.6 28.8 -1.4 4.8-3.4 10.5-2.1 15.4 1.1 4-2.1 8.5-1.4 13.3 0.9 5.5 19.1 4.8 24.2 5.8 4.3 0.8 8.4 0.8 12.3-0.2l1.5-1.4c0.8-0.3 1.8-0.8 2.9-1.3 -0.3 0.4-0.7 0.6-1 1.1 -0.5 0.7-0.7 2.4 0 3.2 1.5 1.9 5.3 1.4 7.3 1.7 2.1 0.3 3.9 0 6-0.5 0.7-0.2 2.3-0.4 3-1.1 1.7 1.9 6.2 1.3 8.5 1.6 2.5 0.3 4.5 0 7-0.5 1.1-0.2 4-0.5 3.9-2 0-0.9-1-0.8-1.5-1.4 0 0-0.1-0.1-0.2-0.3 3-4.2 0.4-9.9 1.9-15.4 6.1-7.5 4.1-16.6 4.5-25.8 0.9-18.9 7.7-38 7.7-57.2 0-6.2-0.5-13.5-1.3-19.8 -0.7-5.7-4.1-11.2-3.8-16.5 0.3-5.7 5.3-11 5.1-16.2 4.3 3 7.8 6.8 12.2 9.8 -0.4 14.1-3.8 23.1-5.8 34.1 -4.5 25.4 14.6 45.4 15.4 68.5 0.4 12.6-9.3 28.2-1.3 40.4 2.7-0.2 4.9 0 6.4 1l4.1-0.2c1.7 3.7 8.7 2.3 12.2 1.7 0.1-0.6-0.2-1.4-0.7-2.1l2.3-0.1c0-0.8 1.1-0.6 1.3-1.3 -3.1-7.6-3.1-16.4-5.8-25.4 -2.9-9.7-6-15-4.5-24.1 2.3-13.9 5.4-29 7.7-44.4 0.5 4.1 3.8-1 3.2 10.8 0.3 1.5-1.1 1.1-0.1 3.3 0.9 13.1 4.4 21 4.1 35.5 0 1.1 0.4 1.1 0.5 2 0.1 8 2.7 17.3 0.8 25.6 -0.8 3.6 1.6 5.2 1.8 9.5l0.1 0c-0.2 0.2-0.2 0.5 0.6 1.2 -5.3 1.1-1.4 2.7-3.2 7.2l1.6-0.1c-2.6 2.8 6.2 3.8 7.8 3.6 1.6-0.1 3.2-0.4 4.8-0.7 1.1-0.2 4.8 0.1 5.7-0.5 2.2-1.4 0.6-2.5-1-3.1l2.2-0.1c1.2-12.6-6.6-17.8-2.6-27.4 3.2 4.1 3.9 8.9 5.1 13.3 0.6 2.2 0.6 2.2 0.3 3.7 -0.4 2.1-1.9 3.4-0.3 4.6l3.2-0.1c-1.6 1.2-1.5 3.9-0.6 5.8l0.2 0c0.3 0.3 0.7 0.6 1.2 0.8 3.2 1.5 8.7 0.8 12.3 1 2.7 0.1 8.8-0.5 6.7-4.8 -0.8-1.7-3.3-1.4-5.7-1 1.7-2.9 3.3-5.6 1.9-8.8 -2.1-2.2-5.5-2.3-7-3.6 0.2-6 0.7-11.5 0-17.3 -0.9-6.9-4.5-13.3-5.8-19.6 -2-10.2-3.6-28.9-2.8-40.7 0.8-0.4 2.1 0.2 1.9-1.4 -0.2-5.4 0.3-1.1-1.1-6.5 6.7-0.3 7.2-6.8 14.1-6.9 1.6 1.7 4.5 2.2 8.3 1.6 5.2 14.6 2.5 39.5 6.4 54.8 -0.9 1.3-0.6 3.7-1.3 5.2 2.8 7.8 1.2 17.4 3.2 26.8 -3.6 5.1-0.5 10.2-1.3 16 0.7 1.2 2.9 1 4.3 1.4 0.4 0.4 0.8 0.7 1.2 1 0.1 0.2 0.1 0.3 0.2 0.5l0.7 0c2.8 1.5 6.2 2.1 8.9 2.5 1.2 0.2 5.7 0.3 6.7-0.3 1.8-1.1-0.5-2.7-1.5-3.9l-0.3-0.2c-1.1-2.2-1.7-4.8-3-6.8 2.2-3 3.5-6.9 5.8-9.8 -1-11.7 4-22.4 1.3-30.1 3-9.1 4.2-16.2 6.4-25.8 2.5-10.7 3-21.6 8.3-26.6 0.1-0.8-0.1-1.8 0.6-1.9v-0.6C246.7-36.8 241.6-50.7 238.5-62z"/><path d="M221.7 129.3c0 3-0.9 4.3-2 5 -2.1-0.8-3.6-2.4-4.9-4.6l-7.1-11.4c-1.8-2.9-4-6.1-6.9-8.1 5.8-1 11.2-4.1 11.2-10.3 0-4.3-2.1-7.2-4.7-9h10.7c1.9 0.1 3.8 0.6 3.8 3.6V129.3M191.2 109.5c-0.9 0-1.9 0-2.8-0.1V97c0-3.2 0.2-5.8 4.6-5.8 6 0 8.8 4 8.8 9.3C201.8 106.7 197.1 109.5 191.2 109.5zM206.4 40c-0.9-0.2-0.5 0-0.5-0.5 0-1.5 1.1-3.5 1.9-6.1 0.1-0.4 0.5-1.2 0.5-1.2 0.6 0.6 0.5 0.3 0.8 1.1 0 2.4-1.2 5-1.5 7.9h-1.1C207.1 40 206.2 39.9 206.4 40zM152.9 87.9c3.8-2 7.2-5.2 10-7.9 -0.1 1.9 0.3 5.6 2.9 7.9H152.9zM150.6 84.2c-3.8 0-5.3-5.7-5.3-8.6 0-2.9 4.2-5 5.8-5.7l11.4-5v11.8l-1 1C158.6 80.3 154.6 84.2 150.6 84.2zM106.9 127.5c0 5.3-4.6 8.1-10.3 8.1 -7.1 0-9.6-4.8-11.4-9.2h-2.8c0.3 2.7 0.6 5.4 0.9 8.1 -3.5 0-6.9-0.1-6.9-4.7v-26.8c0-5.5-1.5-9.7-4.7-12.1h15.6c-2.9 2.5-4.7 6.2-4.7 10.9C82.7 118.3 106.9 115.3 106.9 127.5zM66.6 80.8v-15.1c5.3 0 5.9 1.1 7.8 4.2l9.2 16c0.4 0.8 0.8 1.4 1.1 2H71.4C68.6 87.7 66.6 86.3 66.6 80.8zM66.6 50c0-3.2 0.2-5.8 4.6-5.8 6 0 8.8 4 8.8 9.3 0 6.2-4.8 9.1-10.6 9.1 -0.9 0-1.9 0-2.8-0.1V50zM45 97.3v-6.4h9C50.8 92.6 47.8 95.1 45 97.3zM234.5 42.9c5.4 0 9.5 3.9 9.5 9.3 0 1.9-1.7 4-3.1 4l-18.6 0.6C223.3 50.5 227.9 42.9 234.5 42.9zM254.9 126.6c-0.4 0-0.6 0.1-1.3 1.1l-2.2 3.3c-1.5 2.3-2 3.5-5.2 3.5h-9.6c-4.7 0-5.5-1.8-5.5-5.6v-16.2h6.7c3 0 5-0.1 5.8 1.9 0.6 1.5 0.6 2.9 0.6 4.1 0 0.4 0.2 0.6 0.6 0.6h1.6c0.4 0 0.6-0.4 0.6-1.1 0-2.2-0.1-4.4-0.1-6.3 0-2.6 0.1-5.2 0.1-7.8 0-0.3-0.1-0.5-0.8-0.5h-1.2c-0.4 0-0.5 0.1-0.6 0.5 -1.1 5.8-3.4 5.5-8.6 5.5h-4.8V97.2c0-5.7 0.8-6 4.6-6h8.9c4.6 0 6.5 0.8 6.9 6.2 0.1 1.1 0.1 1.4 0.5 1.4h1.4c0.6 0 0.9-0.3 0.9-0.8 0-1.5-0.1-3-0.1-4.5 0-1.5 0.1-3.2 0.1-4.7 0-0.3 0-0.8-0.6-0.8 -3.3 0-7 0.1-10.7 0.1 4.3-2.2 7.7-5.7 10.4-10.1l-2-1.4c-5.5 5-8.4 6.5-12.5 6.5 -10 0-17.4-9.6-17.4-19.3 0-1.5 0-3.1 0.2-4.7h31.4v-3.4c0-9.2-6.9-16.6-16.8-16.6 -14.4 0-23.2 15-23.2 28 0 8.7 4.6 16.7 11.3 20.6h-18.8l-0.1 0c-3.9 0-5.8-1.5-5.8-6.7v-36.7h7.6c2.2 0 5.2 0.2 5.2 3 0 1.3-0.1 1.9-0.1 2.5 0 0.5 2 0.8 2.7 0.8 0.4 0 0.5-0.2 0.5-0.6 0.4-5.6 1.8-10.6 1.8-11.4 0-0.6-0.4-0.8-1.1-0.8h-1.9c-0.4 1.2-1.3 2.1-3.1 2.6 -1.2-1-1.4 0.5-2.2-0.1 0-0.6 0.2-1.3 0.4-1.8 0.5-1.3 1.1-3.4 1.3-5.1 0.2-1.3-0.3-1.7-0.5-2 -0.2-0.4-1.1-1.4-1.1-1.4 0-0.3 0.4-0.1 1.3-0.8 0.7-0.5 1.6-1 2.4-1.6 1.6 0.4 4.1 1.1 5.8 0.6 -0.2-0.4-0.3-0.9-0.7-1.3 -0.5-0.6-2.4-1.7-2.8-1.8 0.7-0.1 0.6-0.2 2.3-0.5 1-0.3 2.1-1.6 2.8-1.4 1.5 0.3 6.6 0.5 9.6-0.5 0.9-0.3 1.4 0 2.7-0.5 0-0.2 0.6-0.3 0.6-0.5 0.3-0.8-0.8-1.3-0.9-2 -0.1-0.4 0.4-1.1 0.2-1.7 -0.3-1.3-2.9-0.3-2.9-0.3l-13.4 2.4c-1-0.1-1.9-0.3-2.9-0.5 0.7-0.9 1.5-1.6 2.5-2.2 1.5-0.9 5.5-3.4 6.6-2.7 -0.8-3.6-3.1-3.6-5.6-3.9 0.3-0.5 0.6-1 1-1.4 1.5-1.7 5.3-6.7 6.8-6.5 -2.9-5.3-6.9-1.4-11.1-1.3 -7.4 0.3-11.8 0.4-14.8 9.3l-3.1 3.3c-2.3-1.5-4.4-3.3-6-3.4 -2.5-0.1-3.9 1.3-5.4 2.8 -0.6 0.6-1.5 0.7-2.5 1.2 0.4 0.3 1 0.5 1.6 0.6 0.8 0.1 1.8 0.2 2.2 0.7 1.3 1.5 1.9 3.7 1.9 5.7 0.1 1.9 0.6 3.6 1.2 5.1 2.8 6.4 9.5 4.8 11 5.2 2.6 0.7 3.8 0.3 6.2-0.4 -0.5 3.5-1.4 4.3-2.1 7.4 -0.2 0.8-2.2 0.2-3.5 0.1 0 0.2 0.3 0.7 0.7 0.8 0.5 0.2 0.8-0.1 0.8 0.1 0 0-0.3 0.3-0.9 0.5 -0.3 0.1-0.7 0.1-1 0.1 -0.4 0.1-0.7 0.3-0.8 0.3h-17.8c-2.5 0-4-1.5-4.8-3.1h-2.3c-0.3 0-0.5 0.1-0.5 0.5 -0.4 3.6-1.8 11.4-1.8 12 0 0.9 0.3 1.1 2 1.1 0.4 0 0.6-0.1 0.8-0.5 1.3-2 2.8-6.5 7-6.5h8.5v37.1c0 4.6-0.8 6-4.8 6.2h-9.3c2-1.8 3.4-4.6 4.3-7.8l-2.2-0.8c-1.5 2.3-2 3.2-4.2 3.2 -3.7 0-3.7-4.7-3.7-7V52c0-9.1-5-13.5-14.5-13.5 -0.5 0-1 0.3-2.4 1.1l-10.4 5.8c-2.4 1.3-6.1 4.1-6.1 7.7 0 1.3 0.3 2.4 0.7 3.3l7.3-4c-0.4-0.7-0.6-1.8-0.6-2.6 0-3.2 5.8-4.1 8.9-4.1 8.4 0 9.2 4.7 9.2 10.8v5.3l-15.1 5.7c-9.6 3.5-11.8 7.1-11.8 9 0 3.5 1.7 8.7 5.1 11.5h-7.8c0.7-2.2 1.4-4.2 2-6.2 0.1-0.4 0.2-0.7 0.2-1.1 0-0.8-2-1.1-2.6-1.1 -0.4 0-0.6 0.1-1.3 1.1l-2.2 3.3c-1.5 2.2-2 3.5-5.2 3.5h-9.6c-4.7 0-5.5-1.8-5.5-5.6V65.7h6.7c2.9 0 5-0.1 5.8 1.9 0.6 1.5 0.6 3 0.6 4.1 0 0.4 0.2 0.6 0.6 0.6h1.6c0.4 0 0.6-0.4 0.6-1.1 0-2.2-0.1-4.4-0.1-6.3 0-2.6 0.1-5.2 0.1-7.8 0-0.3-0.1-0.5-0.8-0.5h-1.2c-0.3 0-0.5 0.1-0.6 0.5 -1.1 5.8-3.4 5.5-8.6 5.5h-4.8V50.2c0-5.7 0.8-6 4.6-6h6.7c4.6 0 6.5 0.8 6.9 6.2 0.1 1.1 0.1 1.4 0.5 1.4h1.4c0.6 0 0.9-0.3 0.9-0.8 0-1.5-0.1-3-0.1-4.5 0-1.5 0.1-3.2 0.1-4.7 0-0.3 0-0.8-0.6-0.8 -7.5 0-15.1 0.4-22.6 0.4 -3.6-0.1-9.1-0.4-11.9-0.4 -0.7 0-1.3 0-1.3 0.7v1.4c0 0.7 0.5 0.7 1.2 0.7 2.2 0 5 0 5 3.6v34.8c0 2.8-0.8 4.2-1.8 4.9 -2-0.8-3.4-2.4-4.7-4.5l-7.1-11.4c-1.8-2.9-4-6.1-6.9-8.1 5.8-1 11.2-4.1 11.2-10.3 0-9.3-9.6-11.9-14-11.9 -5.9 0.1-3.4 0-11.3 0.4 -5.3 0-10.5-0.4-13.6-0.4 -0.3 0-0.5 0.2-0.5 0.6v1.7c0 0.3 0.1 0.5 0.4 0.5h2.2c3.2 0 3.9 2 3.9 9.1v27.1c0 6.4-0.6 7.5-5.6 7.9h-4.9l2-8c0.2-0.8 0.4-1.5 0.4-1.7 0-0.6-2.2-1.2-2.7-1.2 -0.6 0-0.9 1.4-1.1 1.8 -3.4 7-6.7 9.4-14.7 9.4 -12.3 0-19.9-11.3-19.9-22.8 0-11.5 6.8-22.1 19.2-22.1 8.4 0 11.3 4.8 15.1 11.4l2.2-0.6c0.4-0.1 0.4-0.2 0.4-0.4 0-0.5-0.8-6-1.2-9 -0.1-0.4-0.6-0.8-1.4-1.2 -4.6-2.5-10.5-3.7-15.6-3.7C15.1 39.9 0 49.5 0 64.9c0 11.5 5.5 19.4 14 23.5h-0.1c-4.8 0-8.9-0.4-9.9-0.4 -0.5 0-0.6 0.3-0.6 0.7v1.6c0 0.3 0.5 0.5 1.1 0.5 3.4 0 5.2 0.4 5.2 4.2v35.3c0 3.8-2.1 4.4-5.4 4.4 -0.7 0-1 0.2-1 0.6v1.8c0 0.3 0.3 0.4 0.5 0.4 3.6 0 7.4-0.3 11-0.3 3.3 0 6.6 0.4 9.9 0.4 0.6 0 0.9-0.1 0.9-0.8v-1.4c0-0.4-0.2-0.6-0.8-0.6 -3.5 0-5.8-0.5-5.8-4.4V95.1c0-2.9 1.6-4 4.4-4.2h15.5c-2.5 1.1-5.4 2.3-7.9 3 -0.5 0.1-0.7 0.9-0.7 1.2 0 0.8 0.3 1.1 0.7 1.2l3.6 0.9c1.1 0.2 2.1 1.5 2.1 3.6v27.9c0 5.2-1.8 5.8-6.6 5.8 -1.5 0-1.9 0-1.9 1.3v1c0 0.4 0.2 0.8 1 0.8 3.9 0 7.9-0.5 11.8-0.5 2.3 0 7.1 0.5 11.4 0.5 0.2 0 0.3-0.5 0.3-1.5 0-0.9 0-1.5-0.2-1.5 -7.5 0-7.5-2.8-7.5-5.3V100.7c3.2-3.2 8.8-5.9 13.4-5.9 7.7 0 9.7 3.9 9.7 10.7v25.8c0 3.3-5 3.3-6.8 3.3 -0.7 0-1.1 0.3-1.1 0.7 0 0.4 0 2.4 0.8 2.4 3.9 0 7.8-0.5 11.7-0.5 3.6 0 6.4 0.5 10.8 0.5 0.3 0 0.5-0.1 0.5-0.3v-1.1c3.9 1.9 8.2 2.6 12.4 2.6 9.3 0 17.7-5.5 17.7-15.4 0-17.2-24.2-13.6-24.2-25.6 0-5.1 3.9-7.7 8.6-7.7 5.7 0 8.5 3.8 9.4 9.4h3.2v-8.6h4c2.2 0.1 2.8 1.7 2.8 4.7v35c0 3.7-3.2 4-5.5 4.1 -0.6 0-0.7 0.1-0.7 0.7V137c0 0.6 0.2 0.6 0.5 0.6 3.3 0 6.6-0.3 9.9-0.3 3.4 0 8.2 0.4 11.2 0.4 0.5 0 0.8-0.4 0.8-0.8v-1.2c0-0.6-0.4-0.8-0.9-0.8 -3.6-0.2-5.9-0.2-5.9-4.4V94.2c0-3.1 1.7-4.1 4.6-4.1 7 0 8.9 6 8.9 11.8 0 6.2-1.3 10.8-8.4 10.8 -1.1 0-1.5 0.1-1.5 0.4v1.8c0 0.8 0.5 1 1.8 1 9.1 0 18.3-2.9 18.3-14 0-6-2.7-9.2-6.7-11h5.4c2.6 0.1 4 0.9 4 4.2v35.3c0 3.8-2.1 4.4-5.4 4.4 -0.7 0-1 0.2-1 0.6v1.8c0 0.3 0.3 0.4 0.5 0.4 3.6 0 7.4-0.3 11-0.3 3.3 0 6.6 0.4 9.9 0.4 0.6 0 0.9-0.1 0.9-0.8v-1.4c0-0.4-0.2-0.6-0.8-0.6 -3.5 0-5.8-0.5-5.8-4.4V95.1c0-2.9 1.6-4 4.4-4.2h8.5c2.7 0.3 3.2 2.4 3.2 9v27.1c0 6.5-0.6 7.4-5.8 7.8 -0.7 0.1-0.8 0.6-0.8 1v1.3c0 0.4 0.1 0.5 0.9 0.5 2.5 0 8.9-0.3 11.9-0.3 2.8 0 5.6 0.4 8.4 0.4 0.4 0 0.8-0.1 0.8-0.6v-1.7c0-0.4-0.1-0.6-0.6-0.6 -3.2 0-5.4-1.1-5.4-7v-15.1c5.3 0 5.9 1.1 7.8 4.2l9.2 16c2 3.5 2.7 4.7 4.2 4.7 1.4 0 3.2-0.3 5-0.3 2 0 3.9 0 5.9 0 0.2 0 0.4 0 0.5 0 0.7 0 1.4 0 2 0v0c1.8 0 3.5 0 5.3 0 8.6 0 17.3 0.4 26 0.4 1.1-3.5 2-6.2 2.9-8.9 0.1-0.3 0.2-0.7 0.2-1.1C257.5 126.9 255.4 126.6 254.9 126.6z"/></svg>