<svg xmlns="http://www.w3.org/2000/svg" version="1.1" x="0" y="0" viewBox="0 0 240 480" enable-background="new 0 0 240 480" xml:space="preserve"><path fill="#F47321" d="M98.6 267.3l-0.1-0.1c-19.5-14.7-35.3-2.7-37.2-1.2l-2-1.4c-23.2-17.6-40.6 4.5-40.8 4.8l-0.1 0.1c-15.6 24.2 4.5 39.6 6.9 41.4 0 0 0 0 0 0 -0.1 1.9 0.7 3.8 2.1 5.4 1.5 1.6 3.2 2.4 5.2 2.4 0.3 0 0.6 0 0.9-0.1 -0.1 1.9 0.7 3.8 2.1 5.3 1.5 1.6 3.2 2.4 5.2 2.4 0.3 0 0.6 0 0.9-0.1 -0.1 1.9 0.7 3.8 2.1 5.3 1.5 1.6 3.2 2.4 5.2 2.4 0.1 0 0.3 0 0.4 0 0 0.2-0.1 0.3-0.1 0.5 -0.1 1.9 0.7 3.8 2.1 5.4 1.5 1.6 3.2 2.4 5.2 2.4 2.8 0 4.9-1.7 5.1-1.9l6.8-7c0.2-0.2 0.4-0.5 0.6-0.7 1.5 0.4 2.8 0.5 4.1 0.5 2.4 0 4.5-0.7 6-2 2.1-1.8 2.8-4.4 3-6.3 2.7 0 4.9-0.7 6.5-2.2 1.8-1.7 2.4-3.9 2.6-5.6 5.6-0.9 7.8-6.4 8.3-9.9C117.7 285 98.8 267.5 98.6 267.3zM30.5 313.4c-2.4-2.6 0.2-5.3 0.8-5.9l4.8-5.1c0.5-0.4 1.9-1.1 3.2-1.1 0.9 0 1.6 0.3 2.3 1 1.9 2 0.7 3.8 0 4.5l-6.6 6.8c-0.4 0.3-1.4 0.9-2.4 0.9C31.9 314.5 31.2 314.1 30.5 313.4zM38.7 321.1c-2.4-2.6 0.2-5.3 0.8-5.9l4.8-5.1c0.5-0.4 1.9-1.1 3.2-1.1 0.9 0 1.6 0.3 2.3 1 1.9 2 0.7 3.8 0 4.5l-6.6 6.8c-0.4 0.3-1.4 0.9-2.4 0.9C40.1 322.1 39.4 321.8 38.7 321.1zM46.9 328.7c-2.4-2.6 0.2-5.3 0.8-5.9l4.8-5.1c0.5-0.4 1.9-1.1 3.2-1.1 0.9 0 1.6 0.3 2.3 1 1.9 2 0.7 3.8 0 4.5l-6.6 6.8c-0.4 0.3-1.4 0.9-2.4 0.9C48.3 329.8 47.6 329.4 46.9 328.7zM65.6 330.3l-6.6 6.8c-0.4 0.3-1.4 0.9-2.4 0.9 -0.8 0-1.4-0.3-2.1-1.1 -2.4-2.6 0.2-5.3 0.8-5.9l4.8-5.1c0.5-0.4 1.9-1.1 3.2-1.1 0.9 0 1.6 0.3 2.3 1C67.6 327.9 66.3 329.6 65.6 330.3zM90.3 312.9l-20.6-20.6 -3 3 20.7 20.7c0 0.9-0.3 2.6-1.4 3.6 -1 0.9-2.5 1.2-4.7 1l-19.9-20.1 -3 2.9 19.8 20.1c0 1.3-0.3 3.4-1.7 4.5 -1.4 1.2-3.8 1.1-5.8 0.7 0.2-1.8-0.4-3.8-2.1-5.6 -1.5-1.5-3.3-2.3-5.3-2.3 -0.1 0-0.2 0-0.3 0 0.2-1.9-0.2-4-2.1-5.9 -1.5-1.5-3.3-2.3-5.3-2.3 -0.3 0-0.5 0-0.8 0.1 0.1-1.7-0.5-3.6-2.2-5.4 -1.5-1.5-3.3-2.3-5.3-2.3 -0.3 0-0.5 0-0.8 0.1 0.1-1.7-0.5-3.6-2.2-5.4 -1.5-1.5-3.3-2.3-5.3-2.3 -3.1 0-5.6 1.9-5.9 2.1l-5 5.3c-0.3 0.2-1 1-1.7 2.1 -4.2-3.3-17.1-15.7-4.8-34.8 1.1-1.4 15.4-18.7 34.9-3.9l1.3 0.9 -20.3 18.9 1.6 1.5c3.1 3.1 11.1 7.3 19 1.5l10.7-10.6 26.5 26.6C95.2 308.7 94.1 312.5 90.3 312.9zM97.6 303.1l-28.5-28.6 -13.3 13.2c-4.8 3.5-9.3 1.6-11.7 0.1l19.8-18.5c0.6-0.5 14.2-12.1 32 1.2C97 271.6 110.9 285.2 97.6 303.1z"/><path fill="#F6861F" d="M106.9 57.2c0-0.2 0.1-0.3 0.1-0.5 0.3-5.2-0.7-10.9-5.5-13.9 -0.2-0.1-0.4-0.2-0.7-0.4 -2.3-10.4-13.1-15.9-23.4-15.8 -4.3-4.4-9.6-6.8-15.8-5.3 -2.6 0.6-5.2 2.1-7.3 3.9 -5.4-2.6-11.4-3.1-16.3 1.5 -1.7 1.6-3.1 3.7-4.1 6 -8.1 0.7-15.5 4.3-18.9 12.2 -2.2 5.2-2.3 10.9 0 16.2 5 11.3 19.5 13.1 30.3 11 0.5 0.7 1.1 1.3 1.8 1.8 3.4 2.7 8 4 12.7 4.1 -1.2 9.6 13.3 17.5 19.9 20.5 2.4 1.1 4.6-2.5 2.1-3.6 -6.3-2.9-13.8-6.6-17-13.2 -0.6-1.2-0.8-2.6-0.7-3.9 0 0 0-0.1 0-0.2 2.1-0.3 4-0.9 5.7-1.8 4.4-2.2 6.8-7 11.4-8.8 1.7-0.7 3.4-0.9 5.2-1 0.7 0 1.3 0 2 0 0.2 0 1.4 0.2 0.4 0 0.3 0 0.6 0 0.8 0 0.8 1.5 2.4 2.4 4.3 2.9 1.5 0.4 2.2-2 0.7-2.4 -2.2-0.6-3.5-1.8-2.9-4.1 0.3-1.3 1.1-2.7 2-3.7 1-1.2-0.7-3-1.7-1.7 -1.2 1.4-2.3 3.2-2.7 5 -4.1-0.5-8.4 0.4-12 2.4C74 66.4 72 70 68.7 72.1c-1.9 1.2-4 1.8-6.2 1.9 -0.1 0-0.2 0-0.3 0 -1.6 0.1-3.3-0.1-4.8-0.3 -8.1-1.2-13.2-6.7-9.5-14.9 2.5-5.7 8.6-7.9 14.6-6.7 2.6 0.5 3.7-3.5 1.1-4 -2.8-0.6-5.8-0.6-8.6 0 0-1.4 0-2.9 0-4.1 0-1-3-1-3 0 0 1.9 0 3.4 0 5.1 -2.1 0.9-4 2.2-5.6 4.1 -3.7 4.2-4.9 10.3-3.2 15.3 -8.2 1.3-19.1 0.2-23.7-7.6 -2.4-4-2.5-8.6-1.2-12.9 2.1-6.6 7.8-9.8 14.1-10.8 -0.6 2.6 3.4 3.7 4 1.1 0.6-2.6 1.8-5.3 3.4-7.4 4.4-5.5 10.6-3.4 15.7 0 2.1 1.4 4-1.6 2.5-3.2 1-0.7 2.1-1.3 3.2-1.8 3.8-1.6 7.4-0.6 10.4 1.5 -1.5 0.3-2.9 0.8-4.2 1.4 -2.4 1.1-0.3 4.7 2.1 3.6 4.3-1.9 11-1.9 16.1-0.2 4.4 1.5 8.4 4.9 10.3 9.2 -0.7 0-1.4 0-2 0.1 -2.7 0.4-1.5 4.4 1.1 4 -1.1 0.2 0.5 0 0.9 0 0.9 0 1.9 0.2 2.8 0.6 1.9 0.9 2.9 2.4 3.5 4.3 -0.2-0.2-0.5-0.3-0.7-0.5 -3.4-2.2-7.7-2.5-11.6-2.5 -1.3 0-2.7 0.1-4 0.3 -0.8 0.1-1.8 0.3-1.7 0.3 -1.9-1.1 0.6-4.5 1.3-5.5 1.5-2.3-2.1-4.4-3.6-2.1 -1.8 2.9-3.7 6.9-1.2 9.9 -0.1 0-0.1 0.1-0.1 0.1 -2.8 1.2-5.5 0.2-7.8-1.4 -1.3-0.9-2.5 1.2-1.2 2.1 2.3 1.6 5 2.7 7.9 2.2 1.3-0.2 2.4-0.9 3.5-1.5 2.1 0.7 4.7-0.2 7.1-0.3 5.4-0.2 12.3 1.3 13.1 7.7 0.5 4.2-1.5 9.3-5.4 12 -3.7 2.6-9.2 2.4-13.3 0.9 -2.5-0.9-3.6 3.1-1.1 4 1.3 0.5 2.5 0.8 3.8 1 -1.8 2.6-7.2 3-10.5 3 0-0.3 0-0.7 0.1-1 0.3-1 1.5-1.7 2.5-2.1 2.5-1.1 0.3-4.6-2.1-3.6 -2.1 0.9-3.8 2.7-4.5 4.9 -1.7 5.9 6.2 10.4 10.3 12.7 2.4 1.3 4.5-2.3 2.1-3.6 -1.1-0.6-3.4-1.8-5.3-3.2 5.1-0.5 10.7-2.2 12-6.9 8-0.7 15-6.5 15.8-15.5C107.4 60.2 107.2 58.6 106.9 57.2zM53.5 66.6c0.1 1.6 2.5 1.6 2.5 0 -0.1-3.1 2.5-4.7 5.1-5.7 1-0.4 2.6-0.8 3.7-1 0.1 0.2 0.1 0.4 0.2 0.5 1.7 4 6.1 3.7 9.6 2.4 1.5-0.6 0.8-2.9-0.7-2.4 -2.6 1-5.9 1.6-6.9-1.6 -0.3-0.9-0.3-1.9-0.3-2.9 0-0.3 0-0.7 0.1-1 0-0.1 0-0.1 0-0.2 0 0 0 0 0 0 0.3-1.6-2.1-2.2-2.4-0.7 -0.2 1.1-0.2 2.2-0.1 3.4C59.3 58.3 53.2 60.9 53.5 66.6zM47.8 39.6c0.4-1.8 2.8-2.3 4.5-2.4 0.2 0 0.4-0.2 0.6-0.2 0 0 0 0 0 0 0 0 0 0 0 0 1.2 0 2.4 0.1 3.6 0.3 3.7 0.6 6 3.8 7.8 6.8 0.8 1.4 3 0.2 2.1-1.2 -0.3-0.5-0.7-1-1-1.5 1-2.5 3.5-3.6 6.3-2.6 1.5 0.5 2.2-1.9 0.7-2.4 -3.4-1.2-6.8 0-8.6 2.8 -1.9-2.1-4.2-3.7-7.2-4.2 -1-0.1-2.3 0-3.6 0 0 0 0 0-0.1 0 0 0-0.1 0-0.1 0 -2.2 0-4.2-0.6-3.8-3.1 0.3-1.6-2.1-2.3-2.4-0.7 -0.3 1.7 0.1 3.5 1.2 4.7 -1.2 0.6-2.1 1.6-2.4 2.9C45 40.5 47.4 41.1 47.8 39.6zM39.9 46.2c0.1 0.1 0.1 0.1 0.2 0.2 1.1 1 2.6 1.7 4.1 1.9 1.6 0.2 2.2-2.2 0.7-2.4 -0.9-0.1-1.7-0.4-2.5-0.9 -1.9-1.1-1.7-3.3-1-5.1 0.6-1.4-1.5-2.7-2.1-1.2 -0.7 1.7-1.1 3.5-0.7 5.1 -4.6 0.5-6.9 4.4-8 8.9 -2.9 0.8-6.6 0.6-7-3.1 -0.1-1.6-2.6-1.6-2.5 0 0.4 5 4.7 6.5 9 5.7 -0.3 2.6-0.3 5.2-0.1 7.2 0.2 1.6 2.6 1.6 2.5 0C31.9 57.2 32.1 46 39.9 46.2z"/><path fill="#F8981D" d="M109.1 411.7c-15.7-8.3-31.4-16.7-47.1-25 -0.4-0.2-0.8-0.3-1.1-0.2 -0.2 0-0.4 0.1-0.7 0.2 -16.5 8.4-33 16.8-49.4 25.1 -1.1 0.6-1.1 2.4 0 3 15.4 7.8 30.9 15.6 46.3 23.4 1.3 0.7 3.5 2.3 5 1.5 2.4-1.3 4.8-2.5 7.1-3.8 9.6-5.1 19.1-10.2 28.7-15.3v8.8c-1.4 0.4-2.1 1.6-2.1 3 0 1.1 0.5 2.1 1.4 2.7L95.4 446h7.4l-1.9-10.9c0.9-0.6 1.4-1.6 1.4-2.7 0-1.3-1.2-2.4-2.3-2.9v-10c3-1.6 6.1-3.2 9.1-4.9C110.3 414.1 110.3 412.3 109.1 411.7zM101.1 432.5c0 0.9-0.7 1.9-1.6 2.1l1.9 10.4h-4.6l1.9-10.4c-0.9-0.2-1.6-1.1-1.6-2.1 0-1.1 0.9-2 2-2.1C100.2 430.5 101.1 431.4 101.1 432.5zM61.2 436.6C46 428.8 30.6 421 15.5 413.3c15.1-7.7 30.5-15.5 45.7-23.2 14.5 7.7 29.2 15.4 43.6 23.1C90.4 420.9 75.6 428.8 61.2 436.6zM88.4 439c0.1-2.6-0.2-5.2-0.1-7.8 0-0.1-0.3-0.2-0.3-0.4 0 0 0 0 0 0 0-0.9-0.2-1.5-0.9-1.6 -0.4-0.2-0.7-0.1-1.2 0.1 -7.9 4.2-17.3 9.8-23.7 12.5 -2 0.8-4.8-1.1-6.5-1.9 -2.9-1.5-5.8-3-8.8-4.6 -4.1-2.1-8.2-4.3-12.4-6.4 -1.2-0.6-2.6 0.1-2.6 1.5 0 4.1 0 8.2 0 12.4 0 0.6 0.3 1.2 0.8 1.5 4.9 2.7 9.9 5.2 15 7.5 6.9 3 12.8 5.1 20.2 2.7 6.8-2.3 13.2-6.2 19-10.3C88.8 443 88.3 440.9 88.4 439zM84.8 441.5c-3.3 2.3-6.7 4.3-10.2 6.2 -4.6 2.5-10.5 5.5-15.9 4.4 -8.2-1.7-16.7-6.2-23.7-10.3 0-2.8 0-5.7 0-8.5 4 1.9 7.6 3.8 11.3 5.8 2.8 1.5 5.7 2.9 8.5 4.4 2.1 1.1 4.5 2.7 7 2.2 4.3-0.9 8.7-4.2 12.5-6.2 3.5-1.9 7.1-3.7 10.7-5.6C85 436.4 84.9 438.9 84.8 441.5zM57.4 411.2c-0.1 2 1.7 3.5 3.6 3.6 2 0.1 3.5-1.7 3.6-3.6 -0.1-2-1.6-3.5-3.6-3.6C59 407.5 57.5 409.4 57.4 411.2zM63.1 411.2c-0.1 2.7-4 2.7-4.2 0C58.8 408.5 62.9 408.5 63.1 411.2z"/><polygon fill="#FFFFFF" points="234 16 240 16 240 0 224 0 224 6 234 6 "/><polygon fill="#FFFFFF" points="234 104 234 114 224 114 224 120 240 120 240 104 "/><polygon fill="#FFFFFF" points="126 104 120 104 120 120 136 120 136 114 126 114 "/><polygon fill="#FFFFFF" points="126 6 136 6 136 0 120 0 120 16 126 16 "/><polygon fill="#FFFFFF" points="234 136 240 136 240 120 224 120 224 126 234 126 "/><polygon fill="#FFFFFF" points="234 224 234 234 224 234 224 240 240 240 240 224 "/><polygon fill="#FFFFFF" points="126 224 120 224 120 240 136 240 136 234 126 234 "/><polygon fill="#FFFFFF" points="126 126 136 126 136 120 120 120 120 136 126 136 "/><polygon fill="#FFFFFF" points="234 256 240 256 240 240 224 240 224 246 234 246 "/><polygon fill="#FFFFFF" points="234 344 234 354 224 354 224 360 240 360 240 344 "/><polygon fill="#FFFFFF" points="126 344 120 344 120 360 136 360 136 354 126 354 "/><polygon fill="#FFFFFF" points="126 246 136 246 136 240 120 240 120 256 126 256 "/><polygon fill="#FFFFFF" points="234 376 240 376 240 360 224 360 224 366 234 366 "/><polygon fill="#FFFFFF" points="234 464 234 474 224 474 224 480 240 480 240 464 "/><polygon fill="#FFFFFF" points="126 464 120 464 120 480 136 480 136 474 126 474 "/><polygon fill="#FFFFFF" points="126 366 136 366 136 360 120 360 120 376 126 376 "/><path fill="#FBA919" d="M70 209c-7 0-12 0-19 0 -3 0-3 4 0 4 0 0 0.3 0 0.9 0 2.9 0 12.3 0 18.1 0C73 213 73 209 70 209zM70 215c-7 0-12 0-19 0 -3 0-3 4 0 4 0 0 0.2 0 0.6 0 2.5 0 12.3 0 18.4 0C73 219 73 215 70 215zM70 221h-7.1H59h-7c-2 0-2 4 0 4 0 0 1.3 0 3.1 0 0.1 0.9 0.4 2.2 1.4 3.2 0.9 0.9 2.3 1.4 4 1.4 0.2 0 0.3 0 0.4 0 0.1 0 0.3 0 0.4 0 1.7 0 3-0.4 4-1.4 1-1 1.3-2.3 1.4-3.2 1.9 0 3.3 0 3.3 0C72 225 72 221 70 221zM62.6 132c-0.4 0-0.9 0-1.3 0.1 -0.4 0-0.9-0.1-1.3-0.1 -15.7 0-28.5 13.7-28.5 30.8 0 0.5 0.1 2.5 0.1 2.5 0.3 3.1 1.3 6.1 2.5 8.9 1.9 4.3 5.4 7.7 7.5 12 1.4 2.9 2 6.2 2.1 9.4 0 3.2-0.2 6.4 2.7 8.5 3 2.1 7.3 2.8 11.5 2.9 1.2 0 5.2 0 6.1 0 4.4 0 9.1-0.7 12.2-2.9 2.9-2.1 2.7-5.3 2.7-8.5 0-3.2 0.6-6.5 2.1-9.4 2.1-4.3 5.5-7.7 7.5-12 1.2-2.7 2.2-5.8 2.5-8.9 0 0 0.1-2 0.1-2.5C91.1 145.7 78.3 132 62.6 132zM63.2 202.8C63.2 202.8 63.2 202.8 63.2 202.8c-0.6 0-2.5 0-3.8 0 -0.9-5.1-4.5-26.7-4.5-26.7 0.2 0 0.3 0 0.4 0 2.3-0.2 3.7-1.2 6-3 2.3 1.8 3.7 2.8 6 3 0.1 0 0.3 0 0.4 0C67.7 176.2 64.1 197.7 63.2 202.8zM58.7 167.2c0-2.2 1.3-4.1 2.8-4.1s2.8 1.9 2.8 4.1c0 2-2.2 3.8-2.9 4.1C60.8 171 58.7 169.2 58.7 167.2zM87 164.7c0 0-0.1 1.6-0.3 2.3 -1.3 5.7-4.8 9.4-7.7 14.3 -1.9 3.3-3.4 6.9-3.9 10.7 -0.3 2.2-0.1 4.3-0.2 6.5 -0.1 1.8-1.3 2.6-3 3.1 -2.3 0.7-4.9 1-7.4 1.1 0.9-5.6 4.4-26.3 4.4-26.5 1.8 0 4.1-0.2 5.4-1.5 0.8-0.7 1.2-1.7 1.2-2.9 0-1-0.8-2.4-2.1-3 -1.4-0.7-3.2-0.3-4.2 0.8 -0.9 0.9-1 2.4-1.2 3.6 0 0.5-0.1 1-0.2 1.6 -0.2 0-0.4 0-0.5 0 -1.8-0.1-2.9-0.9-4.9-2.4 1.3-0.8 3.3-2.9 3.3-5.2 0-3.1-1.9-5.6-4.3-5.6s-4.3 2.5-4.3 5.6c0 2.2 1.7 4.2 3.1 5.1 -2.1 1.6-3.2 2.4-5.1 2.5 -0.1 0-0.3 0-0.5 0 -0.1-0.6-0.1-1.2-0.2-1.6 -0.1-1.2-0.3-2.6-1.2-3.6 -1-1.1-2.8-1.5-4.2-0.8 -1.3 0.6-2.1 2.1-2.1 3 0 1.2 0.4 2.2 1.2 2.9 1.4 1.3 3.7 1.5 5.4 1.5 0 0.3 3.5 21 4.4 26.6 -2.5-0.1-5.1-0.4-7.4-1.1 -1.7-0.5-2.9-1.3-3-3.1 -0.1-2.2 0.1-4.3-0.2-6.5 -0.5-3.8-1.9-7.4-3.9-10.7 -2.8-4.9-6.4-8.6-7.7-14.3 -0.2-0.7-0.3-2.3-0.3-2.3 0-0.6-0.1-1.1-0.1-1.7 0-14.9 11-27 24.5-27 0.3 0 2.3 0 2.6 0 13.5 0 24.5 12.1 24.5 27C87.1 163.6 87.1 164.2 87 164.7zM69.2 174.9c0-0.1 0.2-1.1 0.2-1.6 0.3-1.7 0.4-3.5 2.6-3.5 0.3 0 0.6 0.1 0.9 0.2 0.8 0.4 1.4 1.4 1.4 1.9 0 0.8-0.2 1.4-0.7 1.9C72.5 174.8 70.6 174.9 69.2 174.9zM53.4 174.9c-1.5 0-3.4-0.2-4.4-1.1 -0.5-0.5-0.7-1.1-0.7-1.9 0-0.5 0.6-1.5 1.4-1.9 0.3-0.1 0.6-0.2 0.9-0.2 2.2 0 2.3 1.9 2.6 3.5C53.3 173.8 53.5 174.9 53.4 174.9z"/><path fill="#F47321" d="M218.6 267.3l-0.1-0.1c-19.5-14.7-35.3-2.7-37.2-1.2l-2-1.4c-23.2-17.6-40.6 4.5-40.8 4.8l-0.1 0.1c-15.6 24.2 4.5 39.6 6.9 41.4 0 0 0 0 0 0 -0.1 1.9 0.7 3.8 2.1 5.4 1.5 1.6 3.2 2.4 5.2 2.4 0.3 0 0.6 0 0.9-0.1 -0.1 1.9 0.7 3.8 2.1 5.3 1.5 1.6 3.2 2.4 5.2 2.4 0.3 0 0.6 0 0.9-0.1 -0.1 1.9 0.7 3.8 2.1 5.3 1.5 1.6 3.2 2.4 5.2 2.4 0.1 0 0.3 0 0.4 0 0 0.2-0.1 0.3-0.1 0.5 -0.1 1.9 0.7 3.8 2.1 5.4 1.5 1.6 3.2 2.4 5.2 2.4 2.8 0 4.9-1.7 5.1-1.9l6.8-7c0.2-0.2 0.4-0.5 0.6-0.7 1.5 0.4 2.8 0.5 4.1 0.5 2.4 0 4.5-0.7 6-2 2.1-1.8 2.8-4.4 3-6.3 2.7 0 4.9-0.7 6.5-2.2 1.8-1.7 2.4-3.9 2.6-5.6 5.6-0.9 7.8-6.4 8.3-9.9C237.7 285 218.8 267.5 218.6 267.3zM150.5 313.4c-2.4-2.6 0.2-5.3 0.8-5.9l4.8-5.1c0.5-0.4 1.9-1.1 3.2-1.1 0.9 0 1.6 0.3 2.3 1 1.9 2 0.7 3.8 0 4.5l-6.6 6.8c-0.4 0.3-1.4 0.9-2.4 0.9C151.9 314.5 151.2 314.1 150.5 313.4zM158.7 321.1c-2.4-2.6 0.2-5.3 0.8-5.9l4.8-5.1c0.5-0.4 1.9-1.1 3.2-1.1 0.9 0 1.6 0.3 2.3 1 1.9 2 0.7 3.8 0 4.5l-6.6 6.8c-0.4 0.3-1.4 0.9-2.4 0.9C160.1 322.1 159.4 321.8 158.7 321.1zM166.9 328.7c-2.4-2.6 0.2-5.3 0.8-5.9l4.8-5.1c0.5-0.4 1.9-1.1 3.2-1.1 0.9 0 1.6 0.3 2.3 1 1.9 2 0.7 3.8 0 4.5l-6.6 6.8c-0.4 0.3-1.4 0.9-2.4 0.9C168.3 329.8 167.6 329.4 166.9 328.7zM185.6 330.3l-6.6 6.8c-0.4 0.3-1.4 0.9-2.4 0.9 -0.8 0-1.4-0.3-2.1-1.1 -2.4-2.6 0.2-5.3 0.8-5.9l4.8-5.1c0.5-0.4 1.9-1.1 3.2-1.1 0.9 0 1.6 0.3 2.3 1C187.6 327.9 186.3 329.6 185.6 330.3zM210.3 312.9l-20.6-20.6 -3 3 20.7 20.7c0 0.9-0.3 2.6-1.4 3.6 -1 0.9-2.5 1.2-4.7 1l-19.9-20.1 -3 2.9 19.8 20.1c0 1.3-0.3 3.4-1.7 4.5 -1.4 1.2-3.8 1.1-5.8 0.7 0.2-1.8-0.4-3.8-2.1-5.6 -1.5-1.5-3.3-2.3-5.3-2.3 -0.1 0-0.2 0-0.3 0 0.2-1.9-0.2-4-2.1-5.9 -1.5-1.5-3.3-2.3-5.3-2.3 -0.3 0-0.5 0-0.8 0.1 0.1-1.7-0.5-3.6-2.2-5.4 -1.5-1.5-3.3-2.3-5.3-2.3 -0.3 0-0.5 0-0.8 0.1 0.1-1.7-0.5-3.6-2.2-5.4 -1.5-1.5-3.3-2.3-5.3-2.3 -3.1 0-5.6 1.9-5.9 2.1l-5 5.3c-0.3 0.2-1 1-1.7 2.1 -4.2-3.3-17.1-15.7-4.8-34.8 1.1-1.4 15.4-18.7 34.9-3.9l1.3 0.9 -20.3 18.9 1.6 1.5c3.1 3.1 11.1 7.3 19 1.5l10.7-10.6 26.5 26.6C215.2 308.7 214.1 312.5 210.3 312.9zM217.6 303.1l-28.5-28.6 -13.3 13.2c-4.8 3.5-9.3 1.6-11.7 0.1l19.8-18.5c0.6-0.5 14.2-12.1 32 1.2C217 271.6 230.9 285.2 217.6 303.1z"/><path fill="#F6861F" d="M226.9 57.2c0-0.2 0.1-0.3 0.1-0.5 0.3-5.2-0.7-10.9-5.5-13.9 -0.2-0.1-0.4-0.2-0.7-0.4 -2.3-10.4-13.1-15.9-23.4-15.8 -4.3-4.4-9.6-6.8-15.8-5.3 -2.6 0.6-5.2 2.1-7.3 3.9 -5.4-2.6-11.4-3.1-16.3 1.5 -1.7 1.6-3.1 3.7-4.1 6 -8.1 0.7-15.5 4.3-18.9 12.2 -2.2 5.2-2.3 10.9 0 16.2 5 11.3 19.5 13.1 30.3 11 0.5 0.7 1.1 1.3 1.8 1.8 3.4 2.7 8 4 12.7 4.1 -1.2 9.6 13.3 17.5 19.9 20.5 2.4 1.1 4.6-2.5 2.1-3.6 -6.3-2.9-13.8-6.6-17-13.2 -0.6-1.2-0.8-2.6-0.7-3.9 0 0 0-0.1 0-0.2 2.1-0.3 4-0.9 5.7-1.8 4.4-2.2 6.8-7 11.4-8.8 1.7-0.7 3.4-0.9 5.2-1 0.7 0 1.3 0 2 0 0.2 0 1.4 0.2 0.4 0 0.3 0 0.6 0 0.8 0 0.8 1.5 2.4 2.4 4.3 2.9 1.5 0.4 2.2-2 0.7-2.4 -2.2-0.6-3.5-1.8-2.9-4.1 0.3-1.3 1.1-2.7 2-3.7 1-1.2-0.7-3-1.7-1.7 -1.2 1.4-2.3 3.2-2.7 5 -4.1-0.5-8.4 0.4-12 2.4 -3.5 1.8-5.5 5.4-8.8 7.5 -1.9 1.2-4 1.8-6.2 1.9 -0.1 0-0.2 0-0.3 0 -1.6 0.1-3.3-0.1-4.8-0.3 -8.1-1.2-13.2-6.7-9.5-14.9 2.5-5.7 8.6-7.9 14.6-6.7 2.6 0.5 3.7-3.5 1.1-4 -2.8-0.6-5.6-0.6-8.6 0 0-1.4 0-2.9 0-4.1 0-1-3-1-3 0 0 1.9 0 3.4 0 5.1 -2 0.9-4 2.2-5.6 4.1 -3.7 4.2-4.9 10.3-3.2 15.3 -8.2 1.3-19.1 0.2-23.7-7.6 -2.4-4-2.5-8.6-1.2-12.9 2.1-6.6 7.8-9.8 14.1-10.8 -0.6 2.6 3.4 3.7 4 1.1 0.6-2.6 1.8-5.3 3.4-7.4 4.4-5.5 10.6-3.4 15.7 0 2.1 1.4 4-1.6 2.5-3.2 1-0.7 2.1-1.3 3.2-1.8 3.8-1.6 7.4-0.6 10.4 1.5 -1.5 0.3-2.9 0.8-4.2 1.4 -2.4 1.1-0.3 4.7 2.1 3.6 4.3-1.9 11-1.9 16.1-0.2 4.4 1.5 8.4 4.9 10.3 9.2 -0.7 0-1.4 0-2 0.1 -2.7 0.4-1.5 4.4 1.1 4 -1.1 0.2 0.5 0 0.9 0 0.9 0 1.9 0.2 2.8 0.6 1.9 0.9 2.9 2.4 3.5 4.3 -0.2-0.2-0.5-0.3-0.7-0.5 -3.4-2.2-7.7-2.5-11.6-2.5 -1.3 0-2.7 0.1-4 0.3 -0.8 0.1-1.8 0.3-1.7 0.3 -1.9-1.1 0.6-4.5 1.3-5.5 1.5-2.3-2.1-4.4-3.6-2.1 -1.8 2.9-3.7 6.9-1.2 9.9 -0.1 0-0.1 0.1-0.1 0.1 -2.8 1.2-5.5 0.2-7.8-1.4 -1.3-0.9-2.5 1.2-1.2 2.1 2.3 1.6 5 2.7 7.9 2.2 1.3-0.2 2.4-0.9 3.5-1.5 2.1 0.7 4.7-0.2 7.1-0.3 5.4-0.2 12.3 1.3 13.1 7.7 0.5 4.2-1.5 9.3-5.4 12 -3.7 2.6-9.2 2.4-13.3 0.9 -2.5-0.9-3.6 3.1-1.1 4 1.3 0.5 2.5 0.8 3.8 1 -1.8 2.6-7.2 3-10.5 3 0-0.3 0-0.7 0.1-1 0.3-1 1.5-1.7 2.5-2.1 2.5-1.1 0.3-4.6-2.1-3.6 -2.1 0.9-3.8 2.7-4.5 4.9 -1.7 5.9 6.2 10.4 10.3 12.7 2.4 1.3 4.5-2.3 2.1-3.6 -1.1-0.6-3.4-1.8-5.3-3.2 5.1-0.5 10.7-2.2 12-6.9 8-0.7 15-6.5 15.8-15.5C227.4 60.2 227.2 58.6 226.9 57.2zM173.5 66.6c0.1 1.6 2.5 1.6 2.5 0 -0.1-3.1 2.5-4.7 5.1-5.7 1-0.4 2.6-0.8 3.7-1 0.1 0.2 0.1 0.4 0.2 0.5 1.7 4 6.1 3.7 9.6 2.4 1.5-0.6 0.8-2.9-0.7-2.4 -2.6 1-5.9 1.6-6.9-1.6 -0.3-0.9-0.3-1.9-0.3-2.9 0-0.3 0-0.7 0.1-1 0-0.1 0-0.1 0-0.2 0 0 0 0 0 0 0.3-1.6-2.1-2.2-2.4-0.7 -0.2 1.1-0.2 2.2-0.1 3.4C179.3 58.3 173.2 60.9 173.5 66.6zM167.8 39.6c0.4-1.8 2.8-2.3 4.5-2.4 0.2 0 0.4-0.2 0.6-0.2 0 0 0 0 0 0 0 0 0 0 0 0 1.2 0 2.4 0.1 3.6 0.3 3.7 0.6 6 3.8 7.8 6.8 0.8 1.4 3 0.2 2.1-1.2 -0.3-0.5-0.7-1-1-1.5 1-2.5 3.5-3.6 6.3-2.6 1.5 0.5 2.2-1.9 0.7-2.4 -3.4-1.2-6.8 0-8.6 2.8 -1.9-2.1-4.2-3.7-7.2-4.2 -1-0.1-2.3 0-3.6 0 0 0 0 0-0.1 0 0 0-0.1 0-0.1 0 -2.2 0-4.2-0.6-3.8-3.1 0.3-1.6-2.1-2.3-2.4-0.7 -0.3 1.7 0.1 3.5 1.2 4.7 -1.2 0.6-2.1 1.6-2.4 2.9C165 40.5 167.4 41.1 167.8 39.6zM159.9 46.2c0.1 0.1 0.1 0.1 0.2 0.2 1.1 1 2.6 1.7 4.1 1.9 1.6 0.2 2.2-2.2 0.7-2.4 -0.9-0.1-1.7-0.4-2.5-0.9 -1.9-1.1-1.7-3.3-1-5.1 0.6-1.4-1.5-2.7-2.1-1.2 -0.7 1.7-1.1 3.5-0.7 5.1 -4.6 0.5-6.9 4.4-8 8.9 -2.9 0.8-6.6 0.6-7-3.1 -0.1-1.6-2.6-1.6-2.5 0 0.4 5 4.7 6.5 9 5.7 -0.3 2.6-0.3 5.2-0.1 7.2 0.2 1.6 2.6 1.6 2.5 0C151.9 57.2 152.1 46 159.9 46.2z"/><path fill="#F8981D" d="M229.1 411.7c-15.7-8.3-31.4-16.7-47.1-25 -0.4-0.2-0.8-0.3-1.1-0.2 -0.2 0-0.4 0.1-0.7 0.2 -16.5 8.4-33 16.8-49.4 25.1 -1.1 0.6-1.1 2.4 0 3 15.4 7.8 30.9 15.6 46.3 23.4 1.3 0.7 3.5 2.3 5 1.5 2.4-1.3 4.8-2.5 7.1-3.8 9.6-5.1 18.7-10.2 28.7-15.3v8.8c-1 0.4-2.1 1.6-2.1 3 0 1.1 0.5 2.1 1.4 2.7l-1.9 10.9h7.4l-1.9-10.9c0.9-0.6 1.4-1.6 1.4-2.7 0-1.3-1.3-2.4-2.3-2.9v-10c3-1.6 6.1-3.2 9.1-4.9C230.3 414.1 230.3 412.3 229.1 411.7zM221.1 432.5c0 0.9-0.7 1.9-1.6 2.1l1.9 10.4h-4.6l1.9-10.4c-0.9-0.2-1.6-1.1-1.6-2.1 0-1.1 0.9-2 2-2.1C220.2 430.5 221.1 431.4 221.1 432.5zM181.2 436.6c-15.2-7.8-30.5-15.6-45.6-23.3 15.1-7.7 30.5-15.5 45.7-23.2 14.5 7.7 29.2 15.4 43.6 23.1C210.4 420.9 195.6 428.8 181.2 436.6zM208.4 439c0.1-2.6-0.2-5.2-0.1-7.8 0-0.1-0.3-0.2-0.3-0.4 0 0 0 0 0 0 0-0.9-0.2-1.5-0.9-1.6 -0.4-0.2-0.7-0.1-1.2 0.1 -7.9 4.2-17.3 9.8-23.7 12.5 -2 0.8-4.8-1.1-6.5-1.9 -2.9-1.5-5.8-3-8.8-4.6 -4.1-2.1-8.2-4.3-12.4-6.4 -1.2-0.6-2.6 0.1-2.6 1.5 0 4.1 0 8.2 0 12.4 0 0.6 0.3 1.2 0.8 1.5 4.9 2.7 9.9 5.2 15 7.5 6.9 3 12.8 5.1 20.2 2.7 6.8-2.3 13.2-6.2 19-10.3C208.8 443 208.3 440.9 208.4 439zM204.8 441.5c-3.3 2.3-6.7 4.3-10.2 6.2 -4.6 2.5-10.5 5.5-15.9 4.4 -8.2-1.7-16.7-6.2-23.7-10.3 0-2.8 0-5.7 0-8.5 4 1.9 7.6 3.8 11.3 5.8 2.8 1.5 5.7 2.9 8.5 4.4 2.1 1.1 4.5 2.7 7 2.2 4.3-0.9 8.7-4.2 12.5-6.2 3.5-1.9 7.1-3.7 10.7-5.6C205 436.4 204.9 438.9 204.8 441.5zM177.4 411.2c-0.1 2 1.7 3.5 3.6 3.6 2 0.1 3.5-1.7 3.6-3.6 -0.1-2-1.6-3.5-3.6-3.6C179 407.5 177.5 409.4 177.4 411.2zM183.1 411.2c-0.1 2.7-4 2.7-4.2 0C178.8 408.5 182.9 408.5 183.1 411.2z"/><path fill="#FBA919" d="M190 209c-7 0-12 0-19 0 -3 0-3 4 0 4 0 0 0.3 0 0.9 0 2.9 0 12.1 0 18.1 0C193 213 193 209 190 209zM190 215c-7 0-12 0-19 0 -3 0-3 4 0 4 0 0 0.2 0 0.6 0 2.5 0 12.4 0 18.4 0C193 219 193 215 190 215zM190 221h-7.1H179h-7c-2 0-2 4 0 4 0 0 1.3 0 3.1 0 0.1 0.9 0.4 2.2 1.4 3.2 0.9 0.9 2.3 1.4 4 1.4 0.2 0 0.3 0 0.4 0 0.1 0 0.3 0 0.4 0 1.7 0 3-0.4 4-1.4 1-1 1.3-2.3 1.4-3.2 1.9 0 3.3 0 3.3 0C192 225 192 221 190 221zM182.6 132c-0.4 0-0.9 0-1.3 0.1 -0.4 0-0.9-0.1-1.3-0.1 -15.7 0-28.5 13.7-28.5 30.8 0 0.5 0.1 2.5 0.1 2.5 0.3 3.1 1.3 6.1 2.5 8.9 1.9 4.3 5.4 7.7 7.5 12 1.4 2.9 2 6.2 2.1 9.4 0 3.2-0.2 6.4 2.7 8.5 3 2.1 7.3 2.8 11.5 2.9 1.2 0 5.2 0 6.1 0 4.4 0 9.1-0.7 12.2-2.9 2.9-2.1 2.7-5.3 2.7-8.5 0-3.2 0.6-6.5 2.1-9.4 2.1-4.3 5.5-7.7 7.5-12 1.2-2.7 2.2-5.8 2.5-8.9 0 0 0.1-2 0.1-2.5C211.1 145.7 198.3 132 182.6 132zM183.2 202.8C183.2 202.8 183.2 202.8 183.2 202.8c-0.6 0-2.5 0-3.8 0 -0.9-5.1-4.5-26.7-4.5-26.7 0.2 0 0.3 0 0.4 0 2.3-0.2 3.7-1.2 6-3 2.3 1.8 3.7 2.8 6 3 0.1 0 0.3 0 0.4 0C187.7 176.2 184.1 197.7 183.2 202.8zM178.7 167.2c0-2.2 1.3-4.1 2.8-4.1s2.8 1.9 2.8 4.1c0 2-2.2 3.8-2.9 4.1C180.8 171 178.7 169.2 178.7 167.2zM207 164.7c0 0-0.1 1.6-0.3 2.3 -1.3 5.7-4.8 9.4-7.7 14.3 -1.9 3.3-3.4 6.9-3.9 10.7 -0.3 2.2-0.1 4.3-0.2 6.5 -0.1 1.8-1.3 2.6-3 3.1 -2.3 0.7-4.9 1-7.4 1.1 0.9-5.6 4.4-26.3 4.4-26.5 1.8 0 4.1-0.2 5.4-1.5 0.8-0.7 1.2-1.7 1.2-2.9 0-1-0.8-2.4-2.1-3 -1.4-0.7-3.2-0.3-4.2 0.8 -0.9 0.9-1 2.4-1.2 3.6 0 0.5-0.1 1-0.2 1.6 -0.2 0-0.4 0-0.5 0 -1.8-0.1-2.9-0.9-4.9-2.4 1.3-0.8 3.3-2.9 3.3-5.2 0-3.1-1.9-5.6-4.3-5.6s-4.3 2.5-4.3 5.6c0 2.2 1.7 4.2 3.1 5.1 -2.1 1.6-3.2 2.4-5.1 2.5 -0.1 0-0.3 0-0.5 0 -0.1-0.6-0.1-1.2-0.2-1.6 -0.1-1.2-0.3-2.6-1.2-3.6 -1-1.1-2.8-1.5-4.2-0.8 -1.3 0.6-2.1 2.1-2.1 3 0 1.2 0.4 2.2 1.2 2.9 1.4 1.3 3.7 1.5 5.4 1.5 0 0.3 3.5 21 4.4 26.6 -2.5-0.1-5.1-0.4-7.4-1.1 -1.7-0.5-2.9-1.3-3-3.1 -0.1-2.2 0.1-4.3-0.2-6.5 -0.5-3.8-1.9-7.4-3.9-10.7 -2.8-4.9-6.4-8.6-7.7-14.3 -0.2-0.7-0.3-2.3-0.3-2.3 0-0.6-0.1-1.1-0.1-1.7 0-14.9 11-27 24.5-27 0.3 0 2.3 0 2.6 0 13.5 0 24.5 12.1 24.5 27C207.1 163.6 207.1 164.2 207 164.7zM189.2 174.9c0-0.1 0.2-1.1 0.2-1.6 0.3-1.7 0.4-3.5 2.6-3.5 0.3 0 0.6 0.1 0.9 0.2 0.8 0.4 1.4 1.4 1.4 1.9 0 0.8-0.2 1.4-0.7 1.9C192.5 174.8 190.6 174.9 189.2 174.9zM173.4 174.9c-1.5 0-3.4-0.2-4.4-1.1 -0.5-0.5-0.7-1.1-0.7-1.9 0-0.5 0.6-1.5 1.4-1.9 0.3-0.1 0.6-0.2 0.9-0.2 2.2 0 2.3 1.9 2.6 3.5C173.3 173.8 173.5 174.9 173.4 174.9z"/></svg>