<svg xmlns="http://www.w3.org/2000/svg" xmlns:xlink="http://www.w3.org/1999/xlink" version="1.1" x="0" y="0" viewBox="0 0 171.7 171.7" xml:space="preserve" enable-background="new 0 0 171.7 171.7">
  <style type="text/css">
    
	.st0{fill:#FFFFFF;}
	.st1{fill:#F38B00;}
	.st2{fill:#FEAD5B;}

  </style>
  <g id="Layer_1">
    <polygon class="st0" points="150.2 0 150.2 9.2 162.4 9.2 162.4 21.5 171.6 21.5 171.7 0 "/>
    <polygon class="st0" points="162.4 150.2 162.4 162.4 150.2 162.4 150.2 171.7 171.7 171.5 171.6 150.2 "/>
    <polygon class="st0" points="0 150.2 0 171.7 21.5 171.6 21.5 162.5 9.2 162.5 9.2 150.2 "/>
    <polygon class="st0" points="0 0 0 21.5 9.2 21.5 9.2 9.2 21.5 9.2 21.5 0 "/>
    <path class="st1" d="M150.2 67.6V21.5H21.5v37.8h38.2v11.7H46v41.5H32.7V70.9H21.5v79.3h128.8V104c-0.6 1-1.4 2-2.3 2.9 -3.9 3.9-8.5 6-15.1 6 -6.6 0-11.1-2.1-15.1-6 -5.7-5.6-5.4-13.1-5.4-21.1 0-8-0.2-15.5 5.4-21.1 3.9-3.9 8.5-6 15.1-6 6.6 0 11.1 2.1 15.1 6C148.8 65.7 149.6 66.6 150.2 67.6zM96.5 112.4L84.1 90.6l-4.5 5.2v16.7H66.4V59.2h13.1V78l15.6-18.8h16.2L92.9 80.7l19 31.7H96.5z"/>
    <path class="st1" d="M133.3 71.2c-2.6 0-4.7 1-5.7 2.3 -1.3 1.6-2.1 2.5-2.1 12.4 0 9.8 0.8 10.6 2.1 12.2 1.1 1.3 3.1 2.4 5.7 2.4 2.6 0 4.7-1.1 5.7-2.4 1.3-1.6 2.1-2.4 2.1-12.2 0-9.8-0.8-10.8-2.1-12.4C138 72.2 135.9 71.2 133.3 71.2z"/>
  </g>
  <g id="Layer_2">
    <polygon class="st2" points="46 110.4 46 112.4 32.7 112.4 32.7 97.1 21.5 85.8 21.5 150.2 85.8 150.2 "/>
    <path class="st2" d="M117.8 106.9c-5.7-5.6-5.4-13.1-5.4-21.1H96l15.9 26.6H96.5L85.8 93.6v56.6l38.8-38.8C122 110.4 119.8 108.9 117.8 106.9z"/>
    <path class="st2" d="M133.3 100.5c2.6 0 4.7-1.1 5.7-2.4 1.3-1.6 2.1-2.4 2.1-12.2 0 0 0 0 0 0h-15.7c0 0 0 0 0 0 0 9.8 0.8 10.6 2.1 12.2C128.6 99.3 130.7 100.5 133.3 100.5z"/>
    <path class="st2" d="M119.4 63.2c0 0-0.1 0.1-0.1 0.1C119.4 63.3 119.4 63.3 119.4 63.2z"/>
    <path class="st2" d="M96 85.8h16.3c0 0 0 0 0 0L96 85.8 96 85.8z"/>
    <path class="st2" d="M85.9 21.5l38.7 38.7c2.4-0.9 5.1-1.4 8.3-1.4 6.6 0 11.1 2.1 15.1 6 0.9 0.9 1.7 1.9 2.3 2.9V21.5H85.9z"/>
    <polygon class="st2" points="48.1 59.2 59.7 59.2 59.7 70.9 46 70.9 46 85.8 66.4 85.8 66.4 59.2 79.5 59.2 79.5 78 95.1 59.2 85.9 70.4 85.9 21.5 85.8 21.5 "/>
    <polygon class="st2" points="32.7 85.8 32.7 74.5 21.5 85.8 "/>
  </g>
</svg>
