<svg xmlns="http://www.w3.org/2000/svg" version="1.1" x="0" y="0" viewBox="0 0 120 40" enable-background="new 0 0 120 40" xml:space="preserve"><path fill="#05323E" d="M40 14.3V0H0v11.7h11.9v3.6H7.6v12.9H3.5V15.4H0V40h40V25.6c-0.2 0.3-0.4 0.6-0.7 0.9 -1.2 1.2-2.6 1.9-4.7 1.9 -2 0-3.5-0.7-4.7-1.9 -1.8-1.7-1.7-4.1-1.7-6.5 0-2.5-0.1-4.8 1.7-6.5 1.2-1.2 2.6-1.9 4.7-1.9 2 0 3.5 0.6 4.7 1.9C39.6 13.7 39.8 14 40 14.3zM23.3 28.3l-3.9-6.8L18 23.1v5.2H14V11.7H18v5.9l4.8-5.9h5l-5.7 6.7 5.9 9.8H23.3zM34.7 15.4c-0.8 0-1.5 0.3-1.8 0.7 -0.4 0.5-0.7 0.8-0.7 3.8 0 3 0.3 3.3 0.7 3.8 0.3 0.4 1 0.7 1.8 0.7 0.8 0 1.4-0.4 1.8-0.7 0.4-0.5 0.7-0.7 0.7-3.8 0-3-0.3-3.3-0.7-3.8C36.2 15.8 35.6 15.4 34.7 15.4z"/><path fill="#05323E" d="M40 0v40h40V0H40zM66.5 20h-4.5c0 6.3 0 14 0 14h-5.8c0 0 0-7.6 0-14h-3.3v-4.9h3.3v-3.2c0-2.3 1.1-5.9 5.9-5.9L67 6v4.8c0 0-3.2 0-3.7 0 -0.5 0-1.2 0.3-1.2 1.3v2.9h5L66.5 20zM80 0v40h40V0H80zM105.7 32.5c-0.9 0-5.7-0.1-7-0.1 -1.2 0-7.7-2-7.7-9.1 0-1.3 0-2.5 0-3.8 0-1.2 0-2.4 0-3.5 0-0.3 0-0.7 0-1 0-1.8-0.2-3.8 0.4-5.5 0.4-1.3 1.5-1.8 2.8-1.8 3.1 0 3.3 3.2 3.3 6.4h9c1.4 0 2.5 1.4 2.5 3.7 0 2.2-2.3 2.7-3.5 2.7h-8.1c0 1.3-0.1 2.5-0.1 3.1 0 1.4 0.5 2.9 4 2.9h4.8c1.2 0 3 0.9 3 3.5C109.1 32.3 106.6 32.5 105.7 32.5z"/></svg>